<svg width="71" height="71" viewBox="0 0 71 71" fill="none" xmlns="http://www.w3.org/2000/svg">
<path d="M0 10C0 4.47715 4.47715 0 10 0H61C66.5228 0 71 4.47715 71 10V61C71 66.5228 66.5228 71 61 71H10C4.47715 71 0 66.5228 0 61V10Z" fill="white"/>
<path d="M40.3525 23.4742C41.7319 23.4052 43.1405 23.4639 44.524 23.4638L52.5524 23.4644C53.1604 23.4651 53.7608 23.4165 54.2177 23.8965C54.2511 23.9314 54.2827 23.9678 54.3124 24.0057C54.3421 24.0437 54.3699 24.0831 54.3957 24.1239C54.4215 24.1646 54.4452 24.2065 54.4669 24.2497C54.4885 24.2928 54.5079 24.3369 54.5251 24.3819C54.5423 24.427 54.5573 24.4728 54.5699 24.5194C54.5826 24.5659 54.5929 24.6129 54.6008 24.6605C54.6088 24.7081 54.6144 24.7559 54.6176 24.804C54.6207 24.8522 54.6215 24.9004 54.6199 24.9486C54.6193 24.9728 54.618 24.9969 54.6161 25.021C54.6142 25.045 54.6117 25.0691 54.6086 25.093C54.6055 25.117 54.6018 25.1409 54.5975 25.1647C54.5931 25.1885 54.5882 25.2121 54.5827 25.2357C54.5772 25.2592 54.5712 25.2826 54.5645 25.3058C54.5578 25.329 54.5505 25.3521 54.5426 25.3749C54.5348 25.3978 54.5263 25.4204 54.5173 25.4428C54.5083 25.4652 54.4987 25.4875 54.4886 25.5094C54.4785 25.5314 54.4678 25.553 54.4565 25.5744C54.4453 25.5958 54.4336 25.6169 54.4212 25.6377C54.4089 25.6585 54.3961 25.679 54.3828 25.6992C54.3694 25.7193 54.3556 25.7391 54.3413 25.7586C54.3269 25.7781 54.3121 25.7971 54.2968 25.8158C54.2815 25.8345 54.2657 25.8528 54.2495 25.8708C54.2332 25.8886 54.2165 25.9061 54.1994 25.9232C54.1823 25.9402 54.1647 25.9568 54.1468 25.973C53.8407 26.2529 53.498 26.2915 53.1011 26.2762L53.0958 32.5947C53.0954 33.1537 53.0127 34.9182 53.1368 35.3794C53.2422 35.7718 53.5043 36.1487 53.6885 36.5113C54.142 37.4135 54.6043 38.3112 55.0754 39.2044C55.8907 40.8093 56.6977 42.4183 57.4963 44.0316L59.9587 48.8862L61.3427 51.6409C61.6793 52.311 62.0444 52.9837 62.2985 53.6901C62.5454 54.3763 62.6396 55.091 62.6375 55.8173C62.6328 57.4516 61.9866 58.908 60.8284 60.0547C58.6042 62.2567 56.3218 61.9156 53.4851 61.9102L38.659 61.913C37.8161 61.9137 36.9461 61.965 36.1158 61.8021C35.977 61.7738 35.8394 61.7407 35.703 61.7028C35.5666 61.6648 35.4318 61.6221 35.2984 61.5746C35.165 61.5272 35.0335 61.475 34.9038 61.4182C34.7741 61.3615 34.6465 61.3002 34.5212 61.2345C34.3958 61.1687 34.2729 61.0986 34.1525 61.0241C34.0321 60.9496 33.9144 60.871 33.7996 60.7883C33.6847 60.7055 33.5729 60.6187 33.4641 60.5281C33.3554 60.4374 33.25 60.3431 33.1479 60.2449C31.6621 58.8054 30.9864 56.8515 31.2754 54.8019C31.314 54.5293 31.3692 54.2601 31.441 53.9942C31.5129 53.7284 31.6008 53.468 31.7048 53.213C31.9694 52.5682 32.3086 51.9751 32.6227 51.3549L34.3819 47.904L37.3281 42.1096C37.7418 41.2912 38.1357 40.4601 38.5635 39.6492C39.0501 38.7474 39.5188 37.8364 39.9695 36.9162C40.1943 36.4685 40.4985 35.9785 40.6289 35.4937C40.7779 34.9392 40.6792 33.3328 40.6796 32.6508C40.6807 30.5289 40.6979 28.4056 40.6725 26.2838C40.4307 26.2869 40.209 26.2785 39.9847 26.177C39.6266 26.0147 39.3506 25.7205 39.2265 25.3457C39.2117 25.3005 39.1993 25.2547 39.1892 25.2084C39.179 25.162 39.1713 25.1152 39.1659 25.068C39.1605 25.0208 39.1575 24.9734 39.1569 24.9259C39.1563 24.8784 39.1581 24.831 39.1623 24.7837C39.1665 24.7364 39.1731 24.6894 39.182 24.6428C39.191 24.5961 39.2022 24.55 39.2158 24.5045C39.2294 24.459 39.2453 24.4143 39.2635 24.3704C39.2816 24.3265 39.3019 24.2837 39.3244 24.2418C39.5518 23.8123 39.9102 23.6189 40.3525 23.4742ZM54.7096 59.0234C55.5066 59.0236 56.4144 59.1126 57.1911 58.9433C57.8861 58.7919 58.5028 58.4814 59.0083 57.9772C59.6561 57.3311 59.9965 56.534 59.9894 55.6191C59.9857 55.1476 59.881 54.7465 59.7033 54.312C59.3813 53.5246 58.9348 52.7626 58.5533 52.001C57.8008 50.477 57.0326 48.9609 56.2488 47.4528C54.8788 44.8178 53.5878 42.1391 52.2555 39.4847C51.8392 38.6552 50.6647 36.6223 50.489 35.8472C50.3635 35.2939 50.4479 33.7332 50.4483 33.0674L50.4459 26.2731C48.0745 26.2758 45.697 26.3149 43.3265 26.2753L43.329 32.4338C43.3299 33.2363 43.4307 35.3595 43.2343 36.0372C43.0555 36.6544 42.7036 37.2451 42.4168 37.8189L41.0859 40.4838L35.7162 51.1953C35.1748 52.2766 34.0389 54.223 33.8971 55.3257C33.7752 56.2751 34.196 57.3206 34.8677 57.9848C35.3618 58.4734 36.0415 58.8324 36.7245 58.9634C37.2833 59.0705 37.8897 59.0246 38.4573 59.0233L41.0155 59.0189L54.7096 59.0234Z" fill="#0E82FE"/>
<path d="M41.3433 45.1766C41.9878 45.1428 42.643 45.1661 43.2886 45.1659L50.3323 45.1664C50.9663 45.1665 51.6103 45.1424 52.2429 45.1744C52.4681 45.1858 52.8282 45.202 53.0211 45.3195C53.0353 45.3282 53.0491 45.3378 53.0633 45.3468C53.2205 45.4464 53.3688 45.5462 53.5009 45.6794C53.9964 46.1791 54.2828 46.9879 54.6072 47.6122L56.4019 51.1251C57.006 52.3119 57.7203 53.4882 58.2171 54.7238C58.3426 55.0359 58.394 55.3041 58.3947 55.6412C58.396 56.2218 58.2094 56.7282 57.7895 57.1389C57.5337 57.389 57.2136 57.5383 56.8669 57.6158C56.3288 57.7362 55.6958 57.6749 55.1435 57.6734L52.5942 57.67L39.0111 57.6722C38.4033 57.6723 37.774 57.7085 37.17 57.649C36.8687 57.6193 36.6045 57.5309 36.3506 57.364C35.9048 57.071 35.6194 56.6414 35.5175 56.119C35.4446 55.7456 35.4579 55.3359 35.5757 54.9735C35.9085 53.9494 36.5102 52.9523 37.0164 52.0046C37.4765 51.1433 37.92 50.2666 38.3674 49.3981C38.9054 48.3538 39.5026 46.901 40.1367 45.9627C40.4313 45.5268 40.8335 45.2725 41.3433 45.1766ZM45.3092 51.1024C45.335 51.0985 45.3607 51.0939 45.3863 51.0886C45.4119 51.0834 45.4373 51.0776 45.4626 51.0711C45.4879 51.0646 45.513 51.0575 45.538 51.0498C45.5629 51.0421 45.5877 51.0338 45.6122 51.0249C45.6367 51.016 45.661 51.0065 45.6851 50.9963C45.7092 50.9862 45.733 50.9755 45.7565 50.9643C45.7801 50.953 45.8034 50.9411 45.8264 50.9287C45.8493 50.9163 45.8719 50.9033 45.8943 50.8898C45.9166 50.8763 45.9386 50.8622 45.9603 50.8476C45.9819 50.833 46.0032 50.8178 46.0241 50.8022C46.045 50.7866 46.0655 50.7704 46.0856 50.7538C46.1057 50.7371 46.1254 50.72 46.1447 50.7023C46.1639 50.6847 46.1828 50.6667 46.2011 50.6481C46.2195 50.6296 46.2375 50.6106 46.2549 50.5912C46.2724 50.5718 46.2893 50.5519 46.3058 50.5317C46.3223 50.5114 46.3383 50.4907 46.3538 50.4697C46.3692 50.4487 46.3841 50.4273 46.3986 50.4056C46.413 50.3838 46.4269 50.3617 46.4402 50.3392C46.4535 50.3168 46.4663 50.294 46.4785 50.271C46.4907 50.2479 46.5024 50.2245 46.5135 50.2009C46.5246 50.1772 46.535 50.1533 46.545 50.1291C46.5549 50.105 46.5641 50.0806 46.5728 50.056C46.5816 50.0314 46.5897 50.0066 46.5972 49.9816C46.6047 49.9566 46.6115 49.9314 46.6178 49.906C46.6241 49.8807 46.6297 49.8552 46.6347 49.8296C46.6397 49.8039 46.6441 49.7782 46.6479 49.7524C46.6516 49.7265 46.6547 49.7006 46.6572 49.6746C46.6597 49.6486 46.6615 49.6226 46.6627 49.5965C46.6639 49.5704 46.6645 49.5443 46.6644 49.5182C46.6643 49.4921 46.6636 49.466 46.6622 49.4399C46.6609 49.4139 46.6589 49.3878 46.6562 49.3618C46.6536 49.3359 46.6503 49.31 46.6464 49.2842C46.6425 49.2583 46.638 49.2326 46.6328 49.207C46.6276 49.1815 46.6219 49.156 46.6154 49.1306C46.609 49.1053 46.602 49.0802 46.5944 49.0553C46.5868 49.0303 46.5785 49.0055 46.5696 48.981C46.5608 48.9564 46.5513 48.9321 46.5413 48.908C46.5313 48.8839 46.5206 48.86 46.5094 48.8364C46.4982 48.8129 46.4864 48.7896 46.474 48.7666C46.4617 48.7436 46.4488 48.7209 46.4353 48.6986C46.4218 48.6762 46.4078 48.6542 46.3932 48.6325C46.3787 48.6108 46.3637 48.5895 46.3481 48.5686C46.3325 48.5476 46.3164 48.527 46.2998 48.5069C46.2832 48.4867 46.2661 48.467 46.2485 48.4477C46.2309 48.4284 46.2129 48.4095 46.1944 48.3911C46.1759 48.3727 46.1569 48.3547 46.1376 48.3372C46.1182 48.3197 46.0984 48.3027 46.0782 48.2861C46.058 48.2696 46.0374 48.2536 46.0164 48.2381C45.9954 48.2226 45.974 48.2076 45.9523 48.1931C45.9306 48.1786 45.9085 48.1646 45.8861 48.1513C45.8637 48.1379 45.8409 48.1251 45.8179 48.1128C45.7949 48.1005 45.7716 48.0888 45.748 48.0776C45.7243 48.0665 45.7004 48.056 45.6763 48.046C45.6522 48.036 45.6278 48.0266 45.6032 48.0179C45.5786 48.0091 45.5538 48.001 45.5288 47.9934C45.5038 47.9859 45.4787 47.9789 45.4534 47.9726C45.428 47.9663 45.4025 47.9606 45.3769 47.9555C45.3513 47.9504 45.3256 47.946 45.2998 47.9421C45.2739 47.9383 45.248 47.9352 45.222 47.9326C45.196 47.93 45.17 47.9281 45.1439 47.9269C45.1178 47.9256 45.0917 47.925 45.0656 47.925C45.0395 47.925 45.0134 47.9257 44.9874 47.927C44.9613 47.9283 44.9352 47.9302 44.9092 47.9328C44.8833 47.9353 44.8574 47.9385 44.8315 47.9424C44.8057 47.9462 44.7799 47.9507 44.7542 47.9558C44.7285 47.9609 44.7029 47.9667 44.6775 47.973C44.6521 47.9794 44.6269 47.9864 44.6018 47.994C44.5768 48.0017 44.5519 48.0099 44.5272 48.0188C44.5026 48.0276 44.4782 48.037 44.454 48.047C44.4298 48.0571 44.4059 48.0677 44.3821 48.0789C44.3585 48.0902 44.3351 48.102 44.312 48.1143C44.2889 48.1267 44.2662 48.1396 44.2437 48.1531C44.2212 48.1666 44.1991 48.1806 44.1774 48.1952C44.1556 48.2098 44.1342 48.2249 44.1132 48.2405C44.0921 48.2561 44.0715 48.2722 44.0513 48.2889C44.0311 48.3055 44.0113 48.3227 43.9918 48.3403C43.9725 48.3579 43.9535 48.376 43.9351 48.3945C43.9165 48.4131 43.8985 48.432 43.8809 48.4514C43.8634 48.4709 43.8463 48.4907 43.8298 48.511C43.8132 48.5313 43.7971 48.5519 43.7815 48.573C43.7659 48.5941 43.7508 48.6155 43.7363 48.6373C43.7218 48.6591 43.7078 48.6813 43.6944 48.7038C43.681 48.7262 43.6681 48.749 43.6558 48.7721C43.6435 48.7953 43.6318 48.8187 43.6206 48.8424C43.6095 48.8661 43.5989 48.89 43.5889 48.9143C43.579 48.9385 43.5696 48.963 43.5608 48.9876C43.552 49.0123 43.5439 49.0372 43.5363 49.0623C43.5288 49.0874 43.5218 49.1126 43.5155 49.138C43.5092 49.1634 43.5035 49.189 43.4985 49.2147C43.4934 49.2404 43.489 49.2662 43.4852 49.2922C43.4814 49.3181 43.4783 49.3441 43.4758 49.3702C43.4733 49.3962 43.4714 49.4223 43.4702 49.4485C43.469 49.4746 43.4684 49.5008 43.4685 49.527C43.4685 49.5532 43.4692 49.5794 43.4706 49.6056C43.472 49.6317 43.4739 49.6579 43.4765 49.6839C43.4792 49.71 43.4825 49.7359 43.4864 49.7618C43.4903 49.7877 43.4948 49.8135 43.5 49.8392C43.5052 49.8649 43.5111 49.8904 43.5175 49.9158C43.5239 49.9412 43.531 49.9664 43.5387 49.9914C43.5463 50.0165 43.5546 50.0414 43.5635 50.066C43.5724 50.0906 43.5819 50.115 43.592 50.1392C43.6021 50.1633 43.6128 50.1873 43.6241 50.2109C43.6354 50.2346 43.6472 50.2579 43.6596 50.281C43.672 50.304 43.685 50.3268 43.6986 50.3491C43.7121 50.3715 43.7262 50.3936 43.7408 50.4153C43.7554 50.4371 43.7706 50.4585 43.7863 50.4795C43.802 50.5005 43.8182 50.521 43.8349 50.5412C43.8516 50.5614 43.8687 50.5812 43.8864 50.6005C43.9041 50.6199 43.9222 50.6388 43.9408 50.6572C43.9593 50.6757 43.9784 50.6936 43.9979 50.7112C44.0173 50.7287 44.0372 50.7457 44.0575 50.7622C44.0779 50.7788 44.0986 50.7948 44.1197 50.8103C44.1407 50.8258 44.1622 50.8408 44.1841 50.8553C44.206 50.8698 44.2281 50.8837 44.2507 50.897C44.2731 50.9104 44.296 50.9232 44.3191 50.9354C44.3423 50.9477 44.3657 50.9594 44.3894 50.9705C44.4132 50.9816 44.4372 50.9921 44.4614 51.002C44.4857 51.0119 44.5101 51.0212 44.5349 51.0299C44.5595 51.0386 44.5844 51.0468 44.6096 51.0543C44.6347 51.0618 44.6599 51.0686 44.6853 51.0749C44.7108 51.0811 44.7364 51.0867 44.762 51.0918C44.7878 51.0967 44.8136 51.1011 44.8396 51.1048C44.8654 51.1085 44.8914 51.1116 44.9176 51.114C44.9436 51.1165 44.9697 51.1183 44.9959 51.1194C45.0221 51.1206 45.0483 51.1211 45.0745 51.121C45.1007 51.1208 45.1268 51.12 45.153 51.1186C45.1791 51.1172 45.2052 51.1151 45.2313 51.1124C45.2573 51.1098 45.2833 51.1064 45.3092 51.1024ZM49.5136 55.4925C49.5385 55.4888 49.5633 55.4844 49.5881 55.4795C49.6128 55.4746 49.6374 55.469 49.6619 55.4628C49.6864 55.4567 49.7107 55.4499 49.7348 55.4426C49.7589 55.4353 49.7829 55.4273 49.8066 55.4188C49.8304 55.4102 49.8539 55.4011 49.8772 55.3914C49.9005 55.3817 49.9236 55.3715 49.9463 55.3606C49.9691 55.3498 49.9916 55.3384 50.0139 55.3265C50.0361 55.3145 50.058 55.302 50.0796 55.289C50.1012 55.276 50.1225 55.2624 50.1435 55.2483C50.1644 55.2343 50.185 55.2197 50.2052 55.2046C50.2254 55.1895 50.2452 55.1739 50.2647 55.1578C50.2841 55.1417 50.3032 55.1252 50.3218 55.1082C50.3404 55.0911 50.3586 55.0737 50.3764 55.0558C50.3941 55.0379 50.4114 55.0195 50.4283 55.0008C50.4452 54.982 50.4615 54.9628 50.4775 54.9432C50.4934 54.9237 50.5088 54.9037 50.5237 54.8833C50.5387 54.863 50.5531 54.8423 50.567 54.8212C50.5809 54.8002 50.5943 54.7788 50.6071 54.7571C50.62 54.7354 50.6323 54.7133 50.644 54.691C50.6558 54.6687 50.667 54.6461 50.6777 54.6232C50.6883 54.6004 50.6984 54.5772 50.7079 54.5539C50.7174 54.5305 50.7263 54.5069 50.7347 54.4831C50.743 54.4593 50.7507 54.4353 50.7579 54.4111C50.765 54.3869 50.7716 54.3625 50.7776 54.338C50.7835 54.3135 50.7889 54.2888 50.7936 54.2641C50.7983 54.2393 50.8024 54.2144 50.8059 54.1893C50.8095 54.1644 50.8123 54.1393 50.8146 54.1142C50.8168 54.0891 50.8185 54.0639 50.8195 54.0387C50.8206 54.0135 50.821 53.9882 50.8208 53.963C50.8205 53.9378 50.8196 53.9126 50.8182 53.8874C50.8167 53.8622 50.8146 53.8371 50.8119 53.812C50.8092 53.7869 50.8059 53.7619 50.8019 53.737C50.798 53.712 50.7934 53.6872 50.7882 53.6625C50.7831 53.6378 50.7773 53.6133 50.7709 53.5889C50.7645 53.5645 50.7575 53.5402 50.75 53.5161C50.7424 53.4921 50.7342 53.4682 50.7255 53.4445C50.7167 53.4209 50.7074 53.3975 50.6974 53.3742C50.6876 53.3511 50.6771 53.3281 50.666 53.3054C50.655 53.2828 50.6434 53.2604 50.6312 53.2383C50.619 53.2162 50.6063 53.1943 50.5931 53.1728C50.5799 53.1514 50.5661 53.1302 50.5518 53.1094C50.5375 53.0886 50.5228 53.0681 50.5075 53.0481C50.4922 53.028 50.4764 53.0083 50.4602 52.9891C50.4439 52.9698 50.4272 52.9509 50.41 52.9324C50.3928 52.914 50.3752 52.8959 50.3571 52.8783C50.339 52.8607 50.3205 52.8435 50.3016 52.8269C50.2827 52.8102 50.2633 52.794 50.2435 52.7783C50.2239 52.7625 50.2038 52.7473 50.1833 52.7326C50.1628 52.7178 50.1419 52.7036 50.1208 52.6899C50.0996 52.6762 50.0781 52.663 50.0562 52.6504C50.0344 52.6377 50.0123 52.6256 49.9899 52.614C49.9674 52.6025 49.9447 52.5915 49.9217 52.5811C49.8988 52.5707 49.8755 52.5608 49.852 52.5515C49.8286 52.5423 49.8049 52.5336 49.781 52.5255C49.7571 52.5174 49.733 52.5098 49.7088 52.5029C49.6845 52.496 49.6601 52.4896 49.6355 52.4839C49.611 52.4782 49.5863 52.4731 49.5614 52.4686C49.5366 52.4641 49.5117 52.4602 49.4866 52.4569C49.4616 52.4537 49.4365 52.451 49.4114 52.449C49.3862 52.447 49.3611 52.4456 49.3359 52.4448C49.3106 52.444 49.2854 52.4439 49.2602 52.4444C49.2349 52.4448 49.2097 52.4459 49.1846 52.4476C49.1594 52.4493 49.1343 52.4516 49.1092 52.4545C49.0841 52.4575 49.0592 52.4611 49.0343 52.4653C49.0097 52.4694 48.9852 52.4741 48.9609 52.4794C48.9365 52.4848 48.9123 52.4907 48.8882 52.4972C48.8642 52.5037 48.8403 52.5108 48.8166 52.5184C48.7929 52.5261 48.7693 52.5344 48.746 52.5432C48.7227 52.552 48.6996 52.5614 48.6767 52.5714C48.6539 52.5813 48.6313 52.5918 48.6089 52.6028C48.5866 52.6139 48.5646 52.6255 48.5428 52.6376C48.521 52.6498 48.4995 52.6624 48.4783 52.6755C48.4572 52.6887 48.4363 52.7024 48.4158 52.7166C48.3953 52.7308 48.3752 52.7455 48.3555 52.7607C48.3357 52.7758 48.3163 52.7915 48.2973 52.8076C48.2782 52.8237 48.2596 52.8403 48.2414 52.8573C48.2232 52.8744 48.2054 52.8918 48.188 52.9097C48.1707 52.9276 48.1538 52.9459 48.1373 52.9646C48.1209 52.9834 48.1049 53.0025 48.0894 53.022C48.0738 53.0415 48.0588 53.0614 48.0442 53.0816C48.0296 53.1019 48.0156 53.1224 48.0021 53.1434C47.9885 53.1643 47.9755 53.1855 47.9629 53.2071C47.9504 53.2286 47.9384 53.2505 47.927 53.2726C47.9155 53.2948 47.9047 53.3172 47.8943 53.3399C47.8839 53.3625 47.8741 53.3854 47.8648 53.4086C47.8556 53.4318 47.8469 53.4551 47.8389 53.4787C47.8308 53.5023 47.8232 53.526 47.8163 53.55C47.8094 53.5739 47.803 53.598 47.7972 53.6223C47.7915 53.6466 47.7863 53.6709 47.7817 53.6954C47.7772 53.7199 47.7732 53.7445 47.7699 53.7693C47.7664 53.7939 47.7637 53.8187 47.7615 53.8436C47.7593 53.8684 47.7578 53.8932 47.7568 53.9181C47.7559 53.943 47.7556 53.968 47.7558 53.9929C47.7561 54.0178 47.757 54.0427 47.7584 54.0676C47.7599 54.0925 47.762 54.1174 47.7647 54.1422C47.7674 54.167 47.7707 54.1916 47.7746 54.2163C47.7785 54.2409 47.783 54.2654 47.7881 54.2898C47.7932 54.3142 47.7989 54.3385 47.8052 54.3626C47.8114 54.3867 47.8183 54.4107 47.8258 54.4345C47.8332 54.4582 47.8412 54.4818 47.8498 54.5053C47.8584 54.5286 47.8675 54.5518 47.8773 54.5748C47.887 54.5977 47.8973 54.6204 47.9081 54.6429C47.919 54.6653 47.9304 54.6875 47.9423 54.7094C47.9542 54.7313 47.9666 54.7529 47.9797 54.7742C47.9926 54.7955 48.0061 54.8164 48.0201 54.837C48.0341 54.8577 48.0486 54.878 48.0636 54.8979C48.0785 54.9178 48.094 54.9373 48.1099 54.9565C48.1259 54.9757 48.1422 54.9944 48.1591 55.0128C48.176 55.0312 48.1933 55.0491 48.211 55.0666C48.2287 55.0842 48.2469 55.1012 48.2655 55.1179C48.284 55.1345 48.303 55.1507 48.3223 55.1664C48.3417 55.1821 48.3614 55.1974 48.3815 55.2121C48.4016 55.2268 48.4221 55.2411 48.4428 55.2549C48.4637 55.2686 48.4848 55.2818 48.5063 55.2946C48.5277 55.3073 48.5494 55.3195 48.5714 55.3311C48.5935 55.3428 48.6158 55.3539 48.6383 55.3645C48.6609 55.3751 48.6837 55.3851 48.7068 55.3945C48.7298 55.404 48.7531 55.4129 48.7767 55.4212C48.8002 55.4295 48.8238 55.4373 48.8477 55.4444C48.8716 55.4516 48.8956 55.4582 48.9199 55.4642C48.944 55.4702 48.9684 55.4756 48.9928 55.4804C49.0173 55.4852 49.0418 55.4894 49.0665 55.493C49.0911 55.4966 49.1159 55.4996 49.1407 55.502C49.1655 55.5044 49.1904 55.5062 49.2153 55.5074C49.2402 55.5085 49.2651 55.5091 49.2901 55.5091C49.315 55.5091 49.3399 55.5084 49.3648 55.5072C49.3897 55.506 49.4146 55.5041 49.4393 55.5017C49.4641 55.4992 49.4889 55.4961 49.5136 55.4925Z" fill="#0E82FE"/>
<path d="M47.3769 39.3247C47.4055 39.3217 47.4341 39.3194 47.4628 39.3178C47.4915 39.3161 47.5202 39.3152 47.549 39.315C47.5777 39.3148 47.6064 39.3153 47.6352 39.3165C47.6639 39.3177 47.6926 39.3196 47.7212 39.3221C47.7498 39.3247 47.7783 39.328 47.8068 39.332C47.8353 39.336 47.8636 39.3406 47.8918 39.346C47.9201 39.3513 47.9482 39.3574 47.9761 39.3641C48.0041 39.3708 48.0318 39.3782 48.0594 39.3863C48.087 39.3944 48.1143 39.4031 48.1415 39.4125C48.1687 39.422 48.1956 39.4321 48.2222 39.4428C48.2489 39.4535 48.2753 39.4648 48.3014 39.4768C48.3275 39.4888 48.3533 39.5015 48.3788 39.5148C48.4043 39.5281 48.4295 39.542 48.4543 39.5564C48.4791 39.5709 48.5036 39.586 48.5276 39.6017C48.5517 39.6174 48.5754 39.6337 48.5987 39.6505C48.622 39.6673 48.6449 39.6847 48.6673 39.7027C48.6897 39.7206 48.7117 39.7391 48.7333 39.7581C48.7548 39.7772 48.7758 39.7967 48.7965 39.8168C48.8171 39.8368 48.8372 39.8574 48.8568 39.8783C48.8764 39.8994 48.8954 39.9209 48.9139 39.9429C48.9325 39.9648 48.9504 39.9872 48.9679 40.0101C48.9854 40.0329 49.0023 40.0562 49.0186 40.0798C49.0349 40.1035 49.0506 40.1275 49.0658 40.152C49.0809 40.1764 49.0955 40.2011 49.1094 40.2263C49.1233 40.2514 49.1367 40.2769 49.1494 40.3027C49.1621 40.3285 49.1741 40.3545 49.1856 40.3809C49.197 40.4073 49.2077 40.4339 49.2178 40.4608C49.228 40.4877 49.2374 40.5148 49.2463 40.5422C49.2551 40.5695 49.2632 40.5971 49.2707 40.6248C49.2781 40.6526 49.2849 40.6805 49.291 40.7086C49.2971 40.7367 49.3025 40.7649 49.3073 40.7932C49.312 40.8216 49.316 40.85 49.3194 40.8786C49.3227 40.9072 49.3254 40.9358 49.3273 40.9644C49.3293 40.9931 49.3305 41.0218 49.3311 41.0505C49.3316 41.0793 49.3314 41.108 49.3306 41.1368C49.3297 41.1655 49.3282 41.1942 49.3259 41.2228C49.3237 41.2514 49.3208 41.28 49.3171 41.3085C49.3135 41.337 49.3092 41.3655 49.3042 41.3937C49.2991 41.422 49.2934 41.4502 49.287 41.4782C49.2806 41.5063 49.2735 41.5341 49.2658 41.5618C49.258 41.5895 49.2496 41.6169 49.2405 41.6442C49.2314 41.6715 49.2217 41.6985 49.2113 41.7253C49.2009 41.7521 49.1898 41.7786 49.178 41.8049C49.1663 41.8311 49.154 41.8571 49.141 41.8827C49.1281 41.9083 49.1145 41.9337 49.1003 41.9587C49.0861 41.9837 49.0713 42.0083 49.0559 42.0325C49.0405 42.0568 49.0245 42.0807 49.0079 42.1042C48.9914 42.1277 48.9743 42.1507 48.9565 42.1734C48.9389 42.196 48.9206 42.2182 48.9018 42.24C48.8831 42.2618 48.8638 42.2831 48.844 42.3039C48.8242 42.3247 48.8039 42.345 48.7831 42.3648C48.7623 42.3847 48.741 42.404 48.7193 42.4228C48.6975 42.4416 48.6753 42.4599 48.6527 42.4776C48.6301 42.4953 48.607 42.5125 48.5836 42.5291C48.5601 42.5456 48.5363 42.5617 48.512 42.5771C48.4878 42.5926 48.4632 42.6074 48.4382 42.6216C48.4132 42.6358 48.3879 42.6494 48.3623 42.6624C48.3366 42.6754 48.3107 42.6878 48.2844 42.6996C48.2582 42.7113 48.2317 42.7223 48.2049 42.7328C48.1782 42.7433 48.1512 42.7531 48.1239 42.7622C48.0967 42.7713 48.0692 42.7798 48.0416 42.7876C48.0139 42.7953 47.986 42.8024 47.958 42.8089C47.93 42.8153 47.9019 42.821 47.8736 42.8261C47.8453 42.8312 47.8169 42.8355 47.7884 42.8392C47.7498 42.8442 47.711 42.8479 47.6722 42.8504C47.6334 42.8528 47.5946 42.8539 47.5556 42.8537C47.5167 42.8536 47.4779 42.8522 47.4391 42.8495C47.4002 42.8468 47.3616 42.8428 47.323 42.8376C47.2845 42.8323 47.2461 42.8258 47.208 42.818C47.1699 42.8102 47.1321 42.8012 47.0946 42.7909C47.0571 42.7806 47.0199 42.7691 46.9832 42.7564C46.9464 42.7436 46.9101 42.7297 46.8743 42.7146C46.8384 42.6995 46.8031 42.6832 46.7683 42.6658C46.7336 42.6483 46.6994 42.6297 46.6659 42.61C46.6323 42.5903 46.5995 42.5695 46.5673 42.5477C46.5351 42.5258 46.5037 42.5029 46.4731 42.479C46.4424 42.455 46.4125 42.4301 46.3835 42.4042C46.3545 42.3782 46.3264 42.3514 46.2991 42.3236C46.2719 42.2959 46.2456 42.2672 46.2203 42.2377C46.1949 42.2082 46.1705 42.1779 46.1472 42.1468C46.1238 42.1157 46.1015 42.0838 46.0802 42.0513C46.059 42.0187 46.0388 41.9854 46.0197 41.9515C46.0007 41.9176 45.9828 41.8831 45.9659 41.848C45.9492 41.813 45.9336 41.7773 45.9191 41.7412C45.9047 41.7051 45.8914 41.6685 45.8794 41.6315C45.8674 41.5945 45.8566 41.5572 45.847 41.5195C45.8375 41.4817 45.8291 41.4437 45.822 41.4055C45.815 41.3672 45.8092 41.3288 45.8047 41.2901C45.8002 41.2515 45.7969 41.2128 45.795 41.1739C45.793 41.1351 45.7923 41.0962 45.7929 41.0573C45.7935 41.0184 45.7953 40.9795 45.7985 40.9407C45.8016 40.902 45.8061 40.8634 45.8118 40.8249C45.8175 40.7864 45.8245 40.7481 45.8327 40.7101C45.841 40.6721 45.8504 40.6344 45.8611 40.597C45.8718 40.5596 45.8838 40.5226 45.8969 40.486C45.9101 40.4494 45.9245 40.4132 45.94 40.3776C45.9555 40.3419 45.9722 40.3068 45.9901 40.2722C46.0079 40.2376 46.0269 40.2037 46.0471 40.1704C46.0671 40.1371 46.0883 40.1045 46.1106 40.0725C46.1328 40.0406 46.156 40.0095 46.1804 39.9791C46.2047 39.9487 46.23 39.9192 46.2562 39.8904C46.2824 39.8617 46.3096 39.8339 46.3377 39.807C46.3658 39.7801 46.3948 39.7541 46.4245 39.7291C46.4543 39.7041 46.4849 39.6801 46.5163 39.6571C46.5477 39.6341 46.5798 39.6121 46.6126 39.5913C46.6454 39.5704 46.6789 39.5506 46.7131 39.532C46.7472 39.5133 46.7819 39.4958 46.8172 39.4794C46.8525 39.463 46.8882 39.4478 46.9245 39.4338C46.9609 39.4198 46.9976 39.407 47.0347 39.3954C47.0718 39.3838 47.1093 39.3735 47.1472 39.3643C47.185 39.3552 47.223 39.3473 47.2614 39.3407C47.2997 39.3341 47.3382 39.3287 47.3769 39.3247Z" fill="#0E82FE"/>
<path d="M21.1666 25.4815C21.1801 25.4794 21.1936 25.4767 21.2072 25.4753C21.8719 25.4082 22.5915 25.4646 23.2631 25.4659L32.1317 25.4666C32.9492 25.4664 33.8127 25.4134 34.6256 25.4884C34.9608 25.5192 35.3038 25.6099 35.5715 25.8221C35.8722 26.0604 36.0475 26.4196 36.0808 26.7993C36.1128 27.1617 36.014 27.5988 35.7615 27.8715C35.4634 28.1934 35.0772 28.2747 34.6607 28.2944L22.4416 28.2989C21.9699 28.299 21.4783 28.3377 21.0099 28.2928C20.7269 28.2656 20.4614 28.175 20.2319 28.0044C19.9502 27.7952 19.7723 27.4852 19.7221 27.139C19.7154 27.0915 19.7111 27.0438 19.7093 26.996C19.7074 26.9481 19.7079 26.9003 19.7109 26.8524C19.7138 26.8047 19.7191 26.7571 19.7268 26.7098C19.7345 26.6625 19.7445 26.6157 19.7569 26.5694C19.7693 26.5232 19.784 26.4777 19.801 26.4328C19.8179 26.388 19.8371 26.3442 19.8585 26.3013C19.8799 26.2585 19.9034 26.2168 19.9289 26.1763C19.9545 26.1357 19.982 26.0966 20.0115 26.0589C20.3183 25.6584 20.6938 25.5536 21.1666 25.4815Z" fill="#0E82FE"/>
<path d="M20.8946 33.3226C21.7003 33.293 22.5139 33.3151 23.3203 33.3155L31.0463 33.3119C31.667 33.3116 32.301 33.2855 32.9199 33.3246C33.1104 33.3366 33.2727 33.3704 33.44 33.466C33.7948 33.6688 34.0805 34.0279 34.1765 34.4274C34.2666 34.802 34.1971 35.1499 33.9908 35.4704C33.7459 35.8509 33.4524 36.022 33.0155 36.1187C32.1743 36.1481 31.3241 36.1245 30.4819 36.1246L25.8276 36.1232C24.817 36.1193 23.8063 36.1205 22.7956 36.127C22.244 36.1296 21.679 36.1564 21.1284 36.124C20.9005 36.1106 20.6725 36.0592 20.4675 35.9572C20.1286 35.7886 19.8997 35.5211 19.7808 35.1641C19.6442 34.7541 19.6855 34.4558 19.8829 34.0767C20.107 33.6463 20.4531 33.4647 20.8946 33.3226Z" fill="#0E82FE"/>
<path d="M21.1172 41.1417C23.1926 41.07 25.3305 41.1345 27.4119 41.1339L29.7131 41.1334C30.1202 41.1335 30.5604 41.1039 30.9635 41.1578C31.1691 41.1853 31.3735 41.2966 31.5344 41.4241C31.8409 41.6667 32.0167 42.0156 32.046 42.4035C32.075 42.7889 31.9713 43.1796 31.7087 43.4699C31.4432 43.7635 31.1175 43.8791 30.7307 43.8933L23.8732 43.8906L21.9256 43.8922C21.6041 43.893 21.2486 43.9218 20.9314 43.8838C20.6568 43.8509 20.3941 43.7428 20.1847 43.5606C20.1668 43.5447 20.1493 43.5284 20.1322 43.5117C20.1152 43.4949 20.0985 43.4777 20.0824 43.4601C20.0662 43.4425 20.0505 43.4244 20.0352 43.406C20.0199 43.3876 20.0051 43.3688 19.9908 43.3497C19.9764 43.3305 19.9626 43.311 19.9493 43.2911C19.9359 43.2713 19.9231 43.2511 19.9108 43.2306C19.8985 43.2101 19.8867 43.1893 19.8755 43.1681C19.8643 43.147 19.8535 43.1256 19.8434 43.104C19.8332 43.0824 19.8236 43.0605 19.8146 43.0383C19.8055 43.0162 19.797 42.9938 19.7891 42.9712C19.7812 42.9486 19.7739 42.9259 19.7671 42.9029C19.7604 42.88 19.7542 42.8569 19.7486 42.8336C19.743 42.8103 19.738 42.787 19.7336 42.7635C19.7292 42.7399 19.7255 42.7163 19.7222 42.6926C19.719 42.6689 19.7165 42.6451 19.7145 42.6213C19.7125 42.5975 19.7111 42.5736 19.7103 42.5497C19.7092 42.5022 19.7104 42.4547 19.7141 42.4072C19.7177 42.3598 19.7236 42.3127 19.7319 42.2659C19.7402 42.2191 19.7508 42.1728 19.7637 42.127C19.7766 42.0812 19.7918 42.0362 19.8091 41.9919C19.8265 41.9477 19.8461 41.9044 19.8678 41.862C19.8895 41.8198 19.9132 41.7786 19.939 41.7386C19.9648 41.6987 19.9925 41.6601 20.0221 41.6229C20.0518 41.5857 20.0832 41.5501 20.1163 41.516C20.4132 41.2108 20.714 41.1546 21.1172 41.1417Z" fill="#0E82FE"/>
<path d="M26.7771 12.0662C26.983 11.0904 27.7113 10.161 28.5336 9.6193C29.6056 8.91317 30.9309 8.71066 32.1775 8.97363C33.4551 9.24309 34.4742 9.93929 35.1854 11.0437C35.3801 11.3461 35.5563 11.6615 35.6058 12.0223C35.8978 12.1094 36.2283 12.0777 36.5303 12.0739C37.7613 12.0583 39.684 11.7995 40.367 13.1196C40.5261 13.4271 40.5671 13.7239 40.547 14.0648L43.2897 14.0649C44.2523 14.0629 45.3022 13.9784 46.2384 14.2192C46.8385 14.3736 47.4455 14.7125 47.886 15.1493C48.881 16.1363 48.8547 16.8567 49.0458 18.1279C49.0044 18.5374 49.037 18.9823 49.0386 19.3952L49.05 21.9054L46.1705 21.9042C46.1721 20.6769 46.2491 19.2337 46.1515 18.0249C46.1227 17.7849 46.0462 17.598 45.8528 17.4432C45.6817 17.3062 45.4877 17.241 45.2737 17.2066C44.7887 17.1289 44.2492 17.1732 43.7583 17.1739C42.6851 17.1755 41.6076 17.1991 40.5348 17.1702C40.5448 18.0553 40.6559 18.9402 39.9694 19.6265C39.6457 19.95 39.2579 20.1282 38.8084 20.19C38.2186 20.2711 37.5652 20.2221 36.9679 20.222L27.2335 20.2195C26.0543 20.2207 24.8711 20.2446 23.6924 20.2212C23.1248 20.2099 22.5714 20.0428 22.1645 19.6262C21.5135 18.9599 21.6798 18.0217 21.6786 17.1784L18.5867 17.1758C17.9832 17.1752 17.3086 17.1081 16.7184 17.2332C16.5395 17.2711 16.4583 17.328 16.3318 17.4578C16.2983 17.4922 16.2669 17.5285 16.2342 17.5636C16.2232 17.5755 16.2114 17.5868 16.2005 17.5988C16.1135 17.6944 16.1001 17.814 16.0849 17.9379C16.0072 18.5712 16.0397 19.2321 16.0399 19.8699L16.05 32.6781L16.0366 49.7056C16.0365 50.507 15.9977 51.3284 16.056 52.1269C16.0757 52.3969 16.1297 52.6072 16.2453 52.8532C16.3862 52.9451 16.5753 53.1018 16.7433 53.1257C17.1091 53.1776 17.5143 53.1482 17.8841 53.1474L20.0327 53.1417L26.4985 53.1392C27.6536 53.139 28.8435 53.0775 29.9939 53.1592C29.8213 53.8236 29.2821 55.6907 29.2615 56.2557L20.4634 56.2552L18.0789 56.2595C17.469 56.2604 16.8314 56.3047 16.2317 56.1803C15.4052 56.009 14.8076 55.6615 14.21 55.0692C13.2227 54.091 13.0973 53.0804 13.0979 51.7407L13.0987 20.9976C13.0983 19.9141 13.0075 18.5022 13.1484 17.4647C13.2627 16.6234 13.6209 15.7505 14.2324 15.1461C15.5045 13.8887 17.2349 14.0631 18.8753 14.0658C19.8083 14.0673 20.742 14.0603 21.6749 14.072C21.6744 13.5081 21.8009 13.0764 22.217 12.6686C22.277 12.6088 22.3405 12.5531 22.4075 12.5014C22.4746 12.4498 22.5446 12.4026 22.6177 12.3598C22.6908 12.3171 22.7663 12.2792 22.8443 12.2462C22.9221 12.2131 23.0018 12.1852 23.0834 12.1623C23.8508 11.9518 25.87 12.0615 26.7771 12.0662ZM29.5613 13.579C29.5609 13.6075 29.5612 13.6359 29.5622 13.6643C29.5634 13.6927 29.5653 13.7211 29.5679 13.7494C29.5706 13.7778 29.574 13.806 29.5783 13.8341C29.5824 13.8623 29.5874 13.8903 29.5932 13.9181C29.5989 13.946 29.6054 13.9737 29.6126 14.0012C29.6199 14.0287 29.6279 14.0559 29.6366 14.083C29.6454 14.1101 29.6549 14.1369 29.6651 14.1635C29.6753 14.19 29.6863 14.2163 29.6979 14.2422C29.7095 14.2682 29.7219 14.2938 29.735 14.3191C29.748 14.3443 29.7617 14.3692 29.7761 14.3938C29.7906 14.4183 29.8056 14.4424 29.8214 14.4661C29.8371 14.4898 29.8534 14.5131 29.8705 14.5359C29.8875 14.5587 29.9051 14.581 29.9233 14.6029C29.9416 14.6247 29.9604 14.646 29.9798 14.6669C29.9992 14.6876 30.0191 14.7079 30.0396 14.7276C30.0601 14.7473 30.0811 14.7665 30.1027 14.7851C30.1243 14.8036 30.1463 14.8216 30.1688 14.839C30.1914 14.8563 30.2143 14.873 30.2378 14.8892C30.2613 14.9053 30.2852 14.9207 30.3095 14.9355C30.3337 14.9503 30.3584 14.9644 30.3835 14.9779C30.4086 14.9913 30.434 15.0041 30.4598 15.0162C30.4855 15.0282 30.5116 15.0396 30.538 15.0502C30.5644 15.0608 30.5911 15.0707 30.618 15.0799C30.6449 15.089 30.6721 15.0974 30.6995 15.1051C30.7269 15.1128 30.7545 15.1198 30.7822 15.126C30.81 15.1321 30.8379 15.1376 30.866 15.1422C30.8941 15.1469 30.9223 15.1507 30.9506 15.1538C30.9788 15.1569 31.0071 15.1592 31.0355 15.1608C31.064 15.1623 31.0924 15.1631 31.1209 15.1631C31.1493 15.1631 31.1778 15.1623 31.2062 15.1608C31.2346 15.1592 31.2629 15.1569 31.2911 15.1537C31.3194 15.1506 31.3476 15.1468 31.3757 15.1421C31.401 15.1379 31.4262 15.1331 31.4512 15.1277C31.4762 15.1223 31.5012 15.1162 31.5259 15.1095C31.5507 15.1029 31.5753 15.0956 31.5997 15.0878C31.6241 15.0799 31.6483 15.0714 31.6722 15.0624C31.6962 15.0533 31.7199 15.0436 31.7434 15.0334C31.7669 15.0231 31.7902 15.0123 31.8132 15.001C31.8361 14.9896 31.8588 14.9776 31.8811 14.9652C31.9035 14.9527 31.9256 14.9396 31.9473 14.926C31.9691 14.9124 31.9905 14.8983 32.0115 14.8836C32.0326 14.869 32.0532 14.8539 32.0735 14.8382C32.0938 14.8225 32.1137 14.8064 32.1332 14.7898C32.1527 14.7731 32.1718 14.756 32.1904 14.7385C32.209 14.7208 32.2272 14.7028 32.245 14.6843C32.2628 14.6659 32.2801 14.647 32.2969 14.6276C32.3138 14.6083 32.3301 14.5885 32.346 14.5684C32.3619 14.5482 32.3772 14.5277 32.392 14.5069C32.4069 14.4859 32.4212 14.4647 32.435 14.443C32.4488 14.4215 32.4621 14.3996 32.4748 14.3773C32.4875 14.355 32.4996 14.3325 32.5113 14.3096C32.5229 14.2868 32.5339 14.2636 32.5444 14.2402C32.5548 14.2168 32.5647 14.1932 32.574 14.1693C32.5833 14.1454 32.5921 14.1213 32.6002 14.097C32.6083 14.0727 32.6158 14.0482 32.6227 14.0235C32.6296 13.9988 32.6358 13.9739 32.6415 13.949C32.6472 13.924 32.6523 13.8989 32.6567 13.8736C32.6611 13.8484 32.665 13.823 32.6682 13.7975C32.6714 13.7721 32.6739 13.7466 32.6758 13.7211C32.6778 13.6955 32.6791 13.6699 32.6798 13.6443C32.6804 13.6186 32.6804 13.593 32.6798 13.5674C32.6793 13.5418 32.678 13.5162 32.6762 13.4906C32.6743 13.465 32.6718 13.4395 32.6687 13.4141C32.6656 13.3887 32.6619 13.3633 32.6575 13.338C32.6531 13.3128 32.6481 13.2877 32.6425 13.2626C32.6369 13.2376 32.6307 13.2128 32.624 13.1881C32.6171 13.1633 32.6097 13.1388 32.6016 13.1145C32.5936 13.0901 32.585 13.066 32.5757 13.0421C32.5665 13.0182 32.5567 12.9945 32.5463 12.9711C32.5359 12.9476 32.525 12.9245 32.5134 12.9016C32.5018 12.8787 32.4897 12.8561 32.4771 12.8338C32.4644 12.8115 32.4513 12.7896 32.4375 12.7679C32.4238 12.7463 32.4096 12.725 32.3948 12.7041C32.38 12.6831 32.3647 12.6625 32.3489 12.6423C32.3331 12.6222 32.3168 12.6024 32.3 12.583C32.2833 12.5636 32.266 12.5447 32.2483 12.5261C32.2306 12.5076 32.2125 12.4895 32.1939 12.4718C32.1753 12.4542 32.1563 12.4371 32.1368 12.4204C32.1174 12.4036 32.0975 12.3874 32.0773 12.3717C32.057 12.356 32.0364 12.3408 32.0154 12.326C31.9944 12.3113 31.9731 12.2972 31.9514 12.2835C31.9297 12.2698 31.9077 12.2567 31.8853 12.2442C31.863 12.2316 31.8404 12.2196 31.8174 12.2081C31.7945 12.1967 31.7713 12.1858 31.7478 12.1755C31.7243 12.1652 31.7006 12.1555 31.6767 12.1463C31.6527 12.1372 31.6286 12.1287 31.6042 12.1207C31.5798 12.1127 31.5553 12.1054 31.5306 12.0987C31.5058 12.092 31.481 12.0858 31.4559 12.0803C31.4309 12.0748 31.4057 12.0699 31.3804 12.0656C31.3552 12.0613 31.3298 12.0577 31.3043 12.0547C31.2789 12.0517 31.2534 12.0493 31.2278 12.0475C31.2022 12.0457 31.1766 12.0446 31.151 12.0441C31.1254 12.0437 31.0997 12.0438 31.0741 12.0445C31.0485 12.0453 31.0229 12.0467 30.9974 12.0487C30.9718 12.0507 30.9463 12.0534 30.9209 12.0567C30.8955 12.06 30.8702 12.0639 30.8449 12.0684C30.8229 12.0724 30.8009 12.0768 30.7791 12.0817C30.7573 12.0866 30.7356 12.092 30.714 12.0978C30.6924 12.1036 30.6709 12.1099 30.6495 12.1167C30.6282 12.1235 30.6071 12.1307 30.586 12.1383C30.565 12.146 30.5442 12.1541 30.5235 12.1627C30.5028 12.1713 30.4823 12.1803 30.462 12.1897C30.4417 12.1992 30.4216 12.2091 30.4018 12.2194C30.3819 12.2297 30.3623 12.2405 30.3429 12.2516C30.3236 12.2628 30.3044 12.2743 30.2855 12.2863C30.2666 12.2983 30.248 12.3107 30.2296 12.3235C30.2113 12.3363 30.1932 12.3495 30.1753 12.363C30.1575 12.3766 30.14 12.3905 30.1228 12.4048C30.1056 12.4192 30.0887 12.4339 30.0722 12.4489C30.0556 12.4639 30.0394 12.4793 30.0235 12.4951C30.0076 12.5108 29.992 12.5269 29.9768 12.5434C29.9616 12.5597 29.9467 12.5765 29.9322 12.5936C29.9177 12.6106 29.9036 12.6279 29.8898 12.6456C29.8761 12.6633 29.8628 12.6812 29.8498 12.6994C29.8368 12.7177 29.8243 12.7362 29.8121 12.755C29.7999 12.7737 29.7881 12.7928 29.7768 12.8121C29.7654 12.8314 29.7545 12.8509 29.7439 12.8706C29.7334 12.8904 29.7234 12.9104 29.7138 12.9305C29.7041 12.9507 29.6949 12.9711 29.686 12.9917C29.6773 13.0123 29.669 13.0331 29.6611 13.054C29.6532 13.0749 29.6457 13.0961 29.6388 13.1174C29.6318 13.1386 29.6253 13.16 29.6193 13.1816C29.6132 13.2031 29.6076 13.2247 29.6024 13.2465C29.5973 13.2683 29.5927 13.2902 29.5885 13.3122C29.5844 13.3342 29.5806 13.3563 29.5774 13.3784C29.5742 13.4006 29.5714 13.4228 29.5691 13.445C29.5669 13.4673 29.5651 13.4896 29.5638 13.5119C29.5625 13.5343 29.5617 13.5566 29.5613 13.579Z" fill="black"/>
</svg>
