<svg width="678" height="800" viewBox="0 0 678 800" fill="none" xmlns="http://www.w3.org/2000/svg">
<path d="M50.0557 259.133C36.2717 259.133 24.5765 263.939 14.9629 273.553C5.34928 283.167 0.541016 294.703 0.541016 308.167V514.896C0.541016 528.698 5.34783 540.383 14.9629 549.998C24.5765 559.611 36.2717 564.42 50.0557 564.42C63.8296 564.42 75.4539 559.613 84.9185 549.998C94.3643 540.384 99.1003 528.698 99.1003 514.896V308.167C99.1003 294.701 94.2935 283.167 84.6784 273.553C75.0633 263.939 63.52 259.133 50.0557 259.133Z" fill="white"/>
<path d="M448.138 73.5517L482.273 10.5814C484.513 6.41251 483.716 3.21568 479.874 0.967773C475.704 -0.970576 472.5 0.0116172 470.261 3.84492L435.648 67.3186C405.192 53.8529 372.979 47.1077 339.01 47.1077C305.034 47.1077 272.818 53.8543 242.373 67.3186L207.759 3.84492C205.51 0.0116172 202.306 -0.961897 198.146 0.967773C194.295 3.2258 193.498 6.41251 195.747 10.5814L229.884 73.5517C195.27 91.2037 167.702 115.787 147.19 147.357C126.678 178.943 116.418 213.46 116.418 250.968H561.119C561.119 213.469 550.857 178.95 530.347 147.357C509.834 115.787 482.425 91.2037 448.138 73.5517ZM250.783 165.143C247.092 168.843 242.683 170.685 237.558 170.685C232.423 170.685 228.103 168.843 224.579 165.143C221.056 161.46 219.294 157.069 219.294 151.926C219.294 146.801 221.056 142.401 224.579 138.709C228.103 135.026 232.433 133.185 237.558 133.185C242.683 133.185 247.092 135.026 250.783 138.709C254.466 142.409 256.316 146.801 256.316 151.926C256.306 157.06 254.457 161.46 250.783 165.143ZM453.422 165.143C449.891 168.843 445.561 170.685 440.445 170.685C435.308 170.685 430.901 168.843 427.216 165.143C423.526 161.46 421.685 157.069 421.685 151.926C421.685 146.801 423.526 142.401 427.216 138.709C430.901 135.026 435.308 133.185 440.445 133.185C445.57 133.185 449.889 135.026 453.422 138.709C456.948 142.409 458.707 146.801 458.707 151.926C458.707 157.06 456.947 161.46 453.422 165.143Z" fill="white"/>
<path d="M118.328 588.454C118.328 603.211 123.453 615.704 133.704 625.955C143.964 636.207 156.457 641.332 171.204 641.332H206.783L207.27 750.478C207.27 764.261 212.077 775.964 221.691 785.58C231.304 795.195 242.849 800.001 256.305 800.001C270.08 800.001 281.782 795.195 291.397 785.58C301.013 775.964 305.819 764.262 305.819 750.478V641.342H372.163V750.478C372.163 764.261 376.968 775.964 386.583 785.58C396.199 795.195 407.891 800.001 421.676 800.001C435.452 800.001 447.154 795.195 456.769 785.58C466.384 775.964 471.189 764.262 471.189 750.478V641.342H507.249C521.669 641.342 534.001 636.215 544.271 625.964C554.521 615.712 559.649 603.22 559.649 588.464V268.259H118.328V588.454Z" fill="white"/>
<path d="M627.945 259.133C614.48 259.133 602.945 263.869 593.33 273.314C583.716 282.778 578.91 294.402 578.91 308.167V514.896C578.91 528.698 583.715 540.383 593.33 549.998C602.945 559.613 614.488 564.42 627.945 564.42C641.721 564.42 653.423 559.613 663.038 549.998C672.653 540.383 677.459 528.698 677.459 514.896V308.167C677.459 294.4 672.653 282.778 663.038 273.314C653.423 263.869 641.721 259.133 627.945 259.133Z" fill="white"/>
</svg>
